<svg aria-roledescription="flowchart-v2" role="graphics-document document" viewBox="-8 -8 751.1640625 1308.921875" style="max-width: 751.1640625px;" xmlns="http://www.w3.org/2000/svg" width="100%" id="mermaid-svg-1771874068520-vtkyj4ncp"><style>#mermaid-svg-1771874068520-vtkyj4ncp{font-family:"trebuchet ms",verdana,arial,sans-serif;font-size:16px;fill:#000000;}#mermaid-svg-1771874068520-vtkyj4ncp .error-icon{fill:#f2dede;}#mermaid-svg-1771874068520-vtkyj4ncp .error-text{fill:#a1260d;stroke:#a1260d;}#mermaid-svg-1771874068520-vtkyj4ncp .edge-thickness-normal{stroke-width:2px;}#mermaid-svg-1771874068520-vtkyj4ncp .edge-thickness-thick{stroke-width:3.5px;}#mermaid-svg-1771874068520-vtkyj4ncp .edge-pattern-solid{stroke-dasharray:0;}#mermaid-svg-1771874068520-vtkyj4ncp .edge-pattern-dashed{stroke-dasharray:3;}#mermaid-svg-1771874068520-vtkyj4ncp .edge-pattern-dotted{stroke-dasharray:2;}#mermaid-svg-1771874068520-vtkyj4ncp .marker{fill:#717171;stroke:#717171;}#mermaid-svg-1771874068520-vtkyj4ncp .marker.cross{stroke:#717171;}#mermaid-svg-1771874068520-vtkyj4ncp svg{font-family:"trebuchet ms",verdana,arial,sans-serif;font-size:16px;}#mermaid-svg-1771874068520-vtkyj4ncp .label{font-family:"trebuchet ms",verdana,arial,sans-serif;color:#000000;}#mermaid-svg-1771874068520-vtkyj4ncp .cluster-label text{fill:#000000;}#mermaid-svg-1771874068520-vtkyj4ncp .cluster-label span,#mermaid-svg-1771874068520-vtkyj4ncp p{color:#000000;}#mermaid-svg-1771874068520-vtkyj4ncp .label text,#mermaid-svg-1771874068520-vtkyj4ncp span,#mermaid-svg-1771874068520-vtkyj4ncp p{fill:#000000;color:#000000;}#mermaid-svg-1771874068520-vtkyj4ncp .node rect,#mermaid-svg-1771874068520-vtkyj4ncp .node circle,#mermaid-svg-1771874068520-vtkyj4ncp .node ellipse,#mermaid-svg-1771874068520-vtkyj4ncp .node polygon,#mermaid-svg-1771874068520-vtkyj4ncp .node path{fill:#ffffff;stroke:#c8c8c8;stroke-width:1px;}#mermaid-svg-1771874068520-vtkyj4ncp .flowchart-label text{text-anchor:middle;}#mermaid-svg-1771874068520-vtkyj4ncp .node .label{text-align:center;}#mermaid-svg-1771874068520-vtkyj4ncp .node.clickable{cursor:pointer;}#mermaid-svg-1771874068520-vtkyj4ncp .arrowheadPath{fill:#000000;}#mermaid-svg-1771874068520-vtkyj4ncp .edgePath .path{stroke:#717171;stroke-width:2.0px;}#mermaid-svg-1771874068520-vtkyj4ncp .flowchart-link{stroke:#717171;fill:none;}#mermaid-svg-1771874068520-vtkyj4ncp .edgeLabel{background-color:#ffffff99;text-align:center;}#mermaid-svg-1771874068520-vtkyj4ncp .edgeLabel rect{opacity:0.5;background-color:#ffffff99;fill:#ffffff99;}#mermaid-svg-1771874068520-vtkyj4ncp .labelBkg{background-color:rgba(255, 255, 255, 0.5);}#mermaid-svg-1771874068520-vtkyj4ncp .cluster rect{fill:#e5ebf1;stroke:#c8c8c8;stroke-width:1px;}#mermaid-svg-1771874068520-vtkyj4ncp .cluster text{fill:#000000;}#mermaid-svg-1771874068520-vtkyj4ncp .cluster span,#mermaid-svg-1771874068520-vtkyj4ncp p{color:#000000;}#mermaid-svg-1771874068520-vtkyj4ncp div.mermaidTooltip{position:absolute;text-align:center;max-width:200px;padding:2px;font-family:"trebuchet ms",verdana,arial,sans-serif;font-size:12px;background:#add6ff;border:1px solid #c8c8c8;border-radius:2px;pointer-events:none;z-index:100;}#mermaid-svg-1771874068520-vtkyj4ncp .flowchartTitleText{text-anchor:middle;font-size:18px;fill:#000000;}#mermaid-svg-1771874068520-vtkyj4ncp :root{--mermaid-font-family:"trebuchet ms",verdana,arial,sans-serif;}</style><g><marker orient="auto" markerHeight="12" markerWidth="12" markerUnits="userSpaceOnUse" refY="5" refX="6" viewBox="0 0 10 10" class="marker flowchart" id="mermaid-svg-1771874068520-vtkyj4ncp_flowchart-pointEnd"><path style="stroke-width: 1; stroke-dasharray: 1, 0;" class="arrowMarkerPath" d="M 0 0 L 10 5 L 0 10 z"/></marker><marker orient="auto" markerHeight="12" markerWidth="12" markerUnits="userSpaceOnUse" refY="5" refX="4.5" viewBox="0 0 10 10" class="marker flowchart" id="mermaid-svg-1771874068520-vtkyj4ncp_flowchart-pointStart"><path style="stroke-width: 1; stroke-dasharray: 1, 0;" class="arrowMarkerPath" d="M 0 5 L 10 10 L 10 0 z"/></marker><marker orient="auto" markerHeight="11" markerWidth="11" markerUnits="userSpaceOnUse" refY="5" refX="11" viewBox="0 0 10 10" class="marker flowchart" id="mermaid-svg-1771874068520-vtkyj4ncp_flowchart-circleEnd"><circle style="stroke-width: 1; stroke-dasharray: 1, 0;" class="arrowMarkerPath" r="5" cy="5" cx="5"/></marker><marker orient="auto" markerHeight="11" markerWidth="11" markerUnits="userSpaceOnUse" refY="5" refX="-1" viewBox="0 0 10 10" class="marker flowchart" id="mermaid-svg-1771874068520-vtkyj4ncp_flowchart-circleStart"><circle style="stroke-width: 1; stroke-dasharray: 1, 0;" class="arrowMarkerPath" r="5" cy="5" cx="5"/></marker><marker orient="auto" markerHeight="11" markerWidth="11" markerUnits="userSpaceOnUse" refY="5.2" refX="12" viewBox="0 0 11 11" class="marker cross flowchart" id="mermaid-svg-1771874068520-vtkyj4ncp_flowchart-crossEnd"><path style="stroke-width: 2; stroke-dasharray: 1, 0;" class="arrowMarkerPath" d="M 1,1 l 9,9 M 10,1 l -9,9"/></marker><marker orient="auto" markerHeight="11" markerWidth="11" markerUnits="userSpaceOnUse" refY="5.2" refX="-1" viewBox="0 0 11 11" class="marker cross flowchart" id="mermaid-svg-1771874068520-vtkyj4ncp_flowchart-crossStart"><path style="stroke-width: 2; stroke-dasharray: 1, 0;" class="arrowMarkerPath" d="M 1,1 l 9,9 M 10,1 l -9,9"/></marker><g class="root"><g class="clusters"/><g class="edgePaths"><path marker-end="url(#mermaid-svg-1771874068520-vtkyj4ncp_flowchart-pointEnd)" style="fill:none;" class="edge-thickness-normal edge-pattern-solid flowchart-link LS-START LE-segment" id="L-START-segment-0" d="M370.559,66.195L370.559,70.362C370.559,74.529,370.559,82.862,370.559,90.312C370.559,97.762,370.559,104.329,370.559,107.612L370.559,110.895"/><path marker-end="url(#mermaid-svg-1771874068520-vtkyj4ncp_flowchart-pointEnd)" style="fill:none;" class="edge-thickness-normal edge-pattern-solid flowchart-link LS-segment LE-extract_temp" id="L-segment-extract_temp-0" d="M431.243,164.195L445.361,169.779C459.479,175.362,487.714,186.529,501.832,196.812C515.949,207.095,515.949,216.495,515.949,221.195L515.949,225.895"/><path marker-end="url(#mermaid-svg-1771874068520-vtkyj4ncp_flowchart-pointEnd)" style="fill:none;" class="edge-thickness-normal edge-pattern-solid flowchart-link LS-segment LE-cleanup_temp" id="L-segment-cleanup_temp-0" d="M309.874,164.195L295.756,169.779C281.639,175.362,253.403,186.529,239.286,201.695C225.168,216.862,225.168,236.029,225.168,255.195C225.168,274.362,225.168,293.529,225.168,312.695C225.168,331.862,225.168,351.029,225.168,371.529C225.168,392.029,225.168,413.862,229.417,430.967C233.666,448.072,242.164,460.449,246.413,466.638L250.662,472.826"/><path marker-end="url(#mermaid-svg-1771874068520-vtkyj4ncp_flowchart-pointEnd)" style="fill:none;" class="edge-thickness-normal edge-pattern-solid flowchart-link LS-extract_temp LE-verify" id="L-extract_temp-verify-0" d="M515.949,279.195L515.949,284.779C515.949,290.362,515.949,301.529,515.949,311.812C515.949,322.095,515.949,331.495,515.949,336.195L515.949,340.895"/><path marker-end="url(#mermaid-svg-1771874068520-vtkyj4ncp_flowchart-pointEnd)" style="fill:none;" class="edge-thickness-normal edge-pattern-solid flowchart-link LS-verify LE-refine" id="L-verify-refine-0" d="M530.39,394.195L534.551,401.112C538.713,408.029,547.036,421.862,555.797,434.986C564.558,448.109,573.756,460.523,578.355,466.73L582.954,472.937"/><path marker-end="url(#mermaid-svg-1771874068520-vtkyj4ncp_flowchart-pointEnd)" style="fill:none;" class="edge-thickness-normal edge-pattern-solid flowchart-link LS-verify LE-cleanup_temp" id="L-verify-cleanup_temp-0" d="M460.826,394.195L444.939,401.112C429.053,408.029,397.28,421.862,373.62,435.136C349.96,448.41,334.412,461.125,326.639,467.483L318.865,473.84"/><path marker-end="url(#mermaid-svg-1771874068520-vtkyj4ncp_flowchart-pointEnd)" style="fill:none;" class="edge-thickness-normal edge-pattern-solid flowchart-link LS-refine LE-verify" id="L-refine-verify-0" d="M633.531,477.195L638.656,470.279C643.781,463.362,654.031,449.529,644.301,436.052C634.57,422.576,604.859,409.456,590.004,402.896L575.148,396.336"/><path marker-end="url(#mermaid-svg-1771874068520-vtkyj4ncp_flowchart-pointEnd)" style="fill:none;" class="edge-thickness-normal edge-pattern-solid flowchart-link LS-cleanup_temp LE-entity_extract" id="L-cleanup_temp-entity_extract-0" d="M214.75,541.195L204.127,546.779C193.505,552.362,172.259,563.529,161.636,573.812C151.014,584.095,151.014,593.495,151.014,598.195L151.014,602.895"/><path marker-end="url(#mermaid-svg-1771874068520-vtkyj4ncp_flowchart-pointEnd)" style="fill:none;" class="edge-thickness-normal edge-pattern-solid flowchart-link LS-cleanup_temp LE-report_or_end" id="L-cleanup_temp-report_or_end-0" d="M336.515,541.195L347.138,546.779C357.761,552.362,379.006,563.529,389.629,580.029C400.252,596.529,400.252,618.362,400.252,638.779C400.252,659.195,400.252,678.195,400.252,697.195C400.252,716.195,400.252,735.195,400.252,754.195C400.252,773.195,400.252,792.195,400.252,811.195C400.252,830.195,400.252,849.195,400.252,868.195C400.252,887.195,400.252,906.195,400.318,919.062C400.384,931.929,400.516,938.663,400.582,942.029L400.648,945.396"/><path marker-end="url(#mermaid-svg-1771874068520-vtkyj4ncp_flowchart-pointEnd)" style="fill:none;" class="edge-thickness-normal edge-pattern-solid flowchart-link LS-entity_extract LE-frame_embed" id="L-entity_extract-frame_embed-0" d="M151.014,672.195L151.014,676.362C151.014,680.529,151.014,688.862,151.014,696.312C151.014,703.762,151.014,710.329,151.014,713.612L151.014,716.895"/><path marker-end="url(#mermaid-svg-1771874068520-vtkyj4ncp_flowchart-pointEnd)" style="fill:none;" class="edge-thickness-normal edge-pattern-solid flowchart-link LS-frame_embed LE-entity_link" id="L-frame_embed-entity_link-0" d="M151.014,786.195L151.014,790.362C151.014,794.529,151.014,802.862,151.014,810.312C151.014,817.762,151.014,824.329,151.014,827.612L151.014,830.895"/><path marker-end="url(#mermaid-svg-1771874068520-vtkyj4ncp_flowchart-pointEnd)" style="fill:none;" class="edge-thickness-normal edge-pattern-solid flowchart-link LS-entity_link LE-db_write" id="L-entity_link-db_write-0" d="M151.014,900.195L151.014,904.362C151.014,908.529,151.014,916.862,151.014,931.057C151.014,945.253,151.014,965.31,151.014,975.339L151.014,985.368"/><path marker-end="url(#mermaid-svg-1771874068520-vtkyj4ncp_flowchart-pointEnd)" style="fill:none;" class="edge-thickness-normal edge-pattern-solid flowchart-link LS-db_write LE-report" id="L-db_write-report-0" d="M200.66,1038.668L226.164,1050.997C251.668,1063.326,302.675,1087.983,339.477,1105.525C376.279,1123.067,398.876,1133.494,410.175,1138.707L421.473,1143.92"/><path marker-end="url(#mermaid-svg-1771874068520-vtkyj4ncp_flowchart-pointEnd)" style="fill:none;" class="edge-thickness-normal edge-pattern-solid flowchart-link LS-db_write LE-END_NODE" id="L-db_write-END_NODE-0" d="M129.601,1038.668L118.601,1050.997C107.601,1063.326,85.601,1087.983,74.601,1109.895C63.602,1131.807,63.602,1150.974,63.602,1168.724C63.602,1186.474,63.602,1202.807,94.121,1218.083C124.64,1233.359,185.678,1247.577,216.197,1254.686L246.716,1261.795"/><path marker-end="url(#mermaid-svg-1771874068520-vtkyj4ncp_flowchart-pointEnd)" style="fill:none;" class="edge-thickness-normal edge-pattern-solid flowchart-link LS-report_or_end LE-report" id="L-report_or_end-report-0" d="M436.948,1043.445L451.734,1054.977C466.52,1066.51,496.092,1089.575,506.841,1106.009C517.589,1122.444,509.514,1132.247,505.477,1137.148L501.439,1142.05"/><path marker-end="url(#mermaid-svg-1771874068520-vtkyj4ncp_flowchart-pointEnd)" style="fill:none;" class="edge-thickness-normal edge-pattern-solid flowchart-link LS-report_or_end LE-END_NODE" id="L-report_or_end-END_NODE-0" d="M360.23,1039.119L339.275,1051.373C318.319,1063.626,276.407,1088.133,255.452,1109.97C234.496,1131.807,234.496,1150.974,234.496,1168.724C234.496,1186.474,234.496,1202.807,238.185,1215.403C241.875,1228,249.253,1236.858,252.942,1241.288L256.631,1245.717"/><path marker-end="url(#mermaid-svg-1771874068520-vtkyj4ncp_flowchart-pointEnd)" style="fill:none;" class="edge-thickness-normal edge-pattern-solid flowchart-link LS-report LE-END_NODE" id="L-report-END_NODE-0" d="M478.301,1194.141L478.301,1198.307C478.301,1202.474,478.301,1210.807,449.331,1222.034C420.36,1233.261,362.42,1247.381,333.449,1254.441L304.479,1261.501"/></g><g class="edgeLabels"><g class="edgeLabel"><g transform="translate(0, 0)" class="label"><rect height="0" width="0" ry="0" rx="0"/><text style=""><tspan class="row" x="0" dy="1em" xml:space="preserve"/></text></g></g><g transform="translate(515.94921875, 197.6953125)" class="edgeLabel"><g transform="translate(-68.9375, -8.5)" class="label"><rect height="17.000202178955078" width="137.73602294921875" ry="0" rx="0"/><text style=""><tspan class="row" x="0" dy="1em" xml:space="preserve">verification enabled</tspan></text></g></g><g transform="translate(225.16796875, 312.6953125)" class="edgeLabel"><g transform="translate(-70.265625, -8.5)" class="label"><rect height="17.000202178955078" width="140.39230346679688" ry="0" rx="0"/><text style=""><tspan class="row" x="0" dy="1em" xml:space="preserve">verification disabled</tspan></text></g></g><g class="edgeLabel"><g transform="translate(0, 0)" class="label"><rect height="0" width="0" ry="0" rx="0"/><text style=""><tspan class="row" x="0" dy="1em" xml:space="preserve"/></text></g></g><g transform="translate(555.359375, 435.6953125)" class="edgeLabel"><g transform="translate(-88.921875, -16.5)" class="label"><rect height="33.00020217895508" width="177.68014526367188" ry="0" rx="0"/><text style=""><tspan class="row" x="0" dy="1em" xml:space="preserve">invalid clips exist</tspan><tspan class="row" x="0" dy="1em" xml:space="preserve">&amp;amp; iterations &amp;lt; max</tspan></text></g></g><g transform="translate(365.5078125, 435.6953125)" class="edgeLabel"><g transform="translate(-80.9296875, -16.5)" class="label"><rect height="33.00020217895508" width="161.70504760742188" ry="0" rx="0"/><text style=""><tspan class="row" x="0" dy="1em" xml:space="preserve">all valid OR</tspan><tspan class="row" x="0" dy="1em" xml:space="preserve">max iterations reached</tspan></text></g></g><g class="edgeLabel"><g transform="translate(0, 0)" class="label"><rect height="0" width="0" ry="0" rx="0"/><text style=""><tspan class="row" x="0" dy="1em" xml:space="preserve"/></text></g></g><g transform="translate(151.013671875, 574.6953125)" class="edgeLabel"><g transform="translate(-72.5, -8.5)" class="label"><rect height="17.000202178955078" width="144.86109924316406" ry="0" rx="0"/><text style=""><tspan class="row" x="0" dy="1em" xml:space="preserve">entity graph enabled</tspan></text></g></g><g transform="translate(400.251953125, 754.1953125)" class="edgeLabel"><g transform="translate(-73.828125, -8.5)" class="label"><rect height="17.000202178955078" width="147.5173797607422" ry="0" rx="0"/><text style=""><tspan class="row" x="0" dy="1em" xml:space="preserve">entity graph disabled</tspan></text></g></g><g class="edgeLabel"><g transform="translate(0, 0)" class="label"><rect height="0" width="0" ry="0" rx="0"/><text style=""><tspan class="row" x="0" dy="1em" xml:space="preserve"/></text></g></g><g class="edgeLabel"><g transform="translate(0, 0)" class="label"><rect height="0" width="0" ry="0" rx="0"/><text style=""><tspan class="row" x="0" dy="1em" xml:space="preserve"/></text></g></g><g class="edgeLabel"><g transform="translate(0, 0)" class="label"><rect height="0" width="0" ry="0" rx="0"/><text style=""><tspan class="row" x="0" dy="1em" xml:space="preserve"/></text></g></g><g transform="translate(353.681640625, 1112.640625)" class="edgeLabel"><g transform="translate(-62.2734375, -8.5)" class="label"><rect height="17.000202178955078" width="124.42335510253906" ry="0" rx="0"/><text style=""><tspan class="row" x="0" dy="1em" xml:space="preserve">reporting enabled</tspan></text></g></g><g transform="translate(63.6015625, 1170.140625)" class="edgeLabel"><g transform="translate(-63.6015625, -8.5)" class="label"><rect height="17.000202178955078" width="127.07964324951172" ry="0" rx="0"/><text style=""><tspan class="row" x="0" dy="1em" xml:space="preserve">reporting disabled</tspan></text></g></g><g transform="translate(525.6640625, 1112.640625)" class="edgeLabel"><g transform="translate(-12.453125, -8.5)" class="label"><rect height="17.000202178955078" width="24.882240295410156" ry="0" rx="0"/><text style=""><tspan class="row" x="0" dy="1em" xml:space="preserve">yes</tspan></text></g></g><g transform="translate(234.49609375, 1170.140625)" class="edgeLabel"><g transform="translate(-8.94921875, -8.5)" class="label"><rect height="17.000202178955078" width="17.889968872070312" ry="0" rx="0"/><text style=""><tspan class="row" x="0" dy="1em" xml:space="preserve">no</tspan></text></g></g><g class="edgeLabel"><g transform="translate(0, 0)" class="label"><rect height="0" width="0" ry="0" rx="0"/><text style=""><tspan class="row" x="0" dy="1em" xml:space="preserve"/></text></g></g></g><g class="nodes"><g transform="translate(370.55859375, 33.09765625)" id="flowchart-START-445" class="node default default flowchart-label"><circle height="32" width="66.1953125" r="33.09765625" ry="0" rx="0" style=""/><g transform="translate(0, -8.5)" style="" class="label"><rect/><text style=""><tspan class="row" x="0" dy="1em" xml:space="preserve">START</tspan></text></g></g><g transform="translate(370.55859375, 140.1953125)" id="flowchart-segment-446" class="node default default flowchart-label"><rect height="48" width="308.5" y="-24" x="-154.25" ry="0" rx="0" style="fill:#4a9eff;" class="basic label-container"/><g transform="translate(0, -16.5)" style="color:#fff;" class="label"><rect/><text style="fill:#fff;"><tspan class="row" x="0" dy="1em" xml:space="preserve">segment</tspan><tspan class="row" x="0" dy="1em" xml:space="preserve">&lt;i&gt;VLM chunks video into action clips&lt;/i&gt;</tspan></text></g></g><g transform="translate(515.94921875, 255.1953125)" id="flowchart-extract_temp-449" class="node default default flowchart-label"><rect height="48" width="289.5" y="-24" x="-144.75" ry="0" rx="0" style="" class="basic label-container"/><g transform="translate(0, -16.5)" style="" class="label"><rect/><text style=""><tspan class="row" x="0" dy="1em" xml:space="preserve">extract_temp</tspan><tspan class="row" x="0" dy="1em" xml:space="preserve">&lt;i&gt;ffmpeg extracts temp .mp4 clips&lt;/i&gt;</tspan></text></g></g><g transform="translate(275.6328125, 509.1953125)" id="flowchart-cleanup_temp-451" class="node default default flowchart-label"><rect height="64" width="200.875" y="-32" x="-100.4375" ry="0" rx="0" style="" class="basic label-container"/><g transform="translate(0, -24.5)" style="" class="label"><rect/><text style=""><tspan class="row" x="0" dy="1em" xml:space="preserve">cleanup_temp</tspan><tspan class="row" x="0" dy="1em" xml:space="preserve">&lt;i&gt;Persist clips_final.jsonl</tspan><tspan class="row" x="0" dy="1em" xml:space="preserve">Delete temp .mp4 files&lt;/i&gt;</tspan></text></g></g><g transform="translate(515.94921875, 370.1953125)" id="flowchart-verify-454" class="node default default flowchart-label"><rect height="48" width="269.34375" y="-24" x="-134.671875" ry="0" rx="0" style="fill:#ff9f43;" class="basic label-container"/><g transform="translate(0, -16.5)" style="color:#fff;" class="label"><rect/><text style="fill:#fff;"><tspan class="row" x="0" dy="1em" xml:space="preserve">verify</tspan><tspan class="row" x="0" dy="1em" xml:space="preserve">&lt;i&gt;VLM critic validates each clip&lt;/i&gt;</tspan></text></g></g><g transform="translate(609.8203125, 509.1953125)" id="flowchart-refine-457" class="node default default flowchart-label"><rect height="64" width="250.6875" y="-32" x="-125.34375" ry="0" rx="0" style="fill:#ff9f43;" class="basic label-container"/><g transform="translate(0, -24.5)" style="color:#fff;" class="label"><rect/><text style="fill:#fff;"><tspan class="row" x="0" dy="1em" xml:space="preserve">refine</tspan><tspan class="row" x="0" dy="1em" xml:space="preserve">&lt;i&gt;VLM re-annotates invalid clips</tspan><tspan class="row" x="0" dy="1em" xml:space="preserve">using critic feedback&lt;/i&gt;</tspan></text></g></g><g transform="translate(151.013671875, 640.1953125)" id="flowchart-entity_extract-465" class="node default default flowchart-label"><rect height="64" width="257.78125" y="-32" x="-128.890625" ry="0" rx="0" style="fill:#2ed573;" class="basic label-container"/><g transform="translate(0, -24.5)" style="color:#fff;" class="label"><rect/><text style="fill:#fff;"><tspan class="row" x="0" dy="1em" xml:space="preserve">entity_extract</tspan><tspan class="row" x="0" dy="1em" xml:space="preserve">&lt;i&gt;LLM extracts entities &amp;amp;</tspan><tspan class="row" x="0" dy="1em" xml:space="preserve">relationships from descriptions&lt;/i&gt;</tspan></text></g></g><g transform="translate(400.251953125, 1014.66796875)" id="flowchart-report_or_end-467" class="node default default flowchart-label"><polygon style="" transform="translate(-64.47265625,64.47265625)" class="label-container" points="64.47265625,0 128.9453125,-64.47265625 64.47265625,-128.9453125 0,-64.47265625"/><g transform="translate(0, -16.5)" style="" class="label"><rect/><text style=""><tspan class="row" x="0" dy="1em" xml:space="preserve">report</tspan><tspan class="row" x="0" dy="1em" xml:space="preserve">enabled?</tspan></text></g></g><g transform="translate(151.013671875, 754.1953125)" id="flowchart-frame_embed-470" class="node default default flowchart-label"><rect height="64" width="216.890625" y="-32" x="-108.4453125" ry="0" rx="0" style="fill:#2ed573;" class="basic label-container"/><g transform="translate(0, -24.5)" style="color:#fff;" class="label"><rect/><text style="fill:#fff;"><tspan class="row" x="0" dy="1em" xml:space="preserve">frame_embed</tspan><tspan class="row" x="0" dy="1em" xml:space="preserve">&lt;i&gt;SigLIP-2 encodes frames</tspan><tspan class="row" x="0" dy="1em" xml:space="preserve">within clip boundaries&lt;/i&gt;</tspan></text></g></g><g transform="translate(151.013671875, 868.1953125)" id="flowchart-entity_link-473" class="node default default flowchart-label"><rect height="64" width="235.96875" y="-32" x="-117.984375" ry="0" rx="0" style="fill:#2ed573;" class="basic label-container"/><g transform="translate(0, -24.5)" style="color:#fff;" class="label"><rect/><text style="fill:#fff;"><tspan class="row" x="0" dy="1em" xml:space="preserve">entity_link</tspan><tspan class="row" x="0" dy="1em" xml:space="preserve">&lt;i&gt;Merge duplicate entities</tspan><tspan class="row" x="0" dy="1em" xml:space="preserve">across clips (ID + time gap)&lt;/i&gt;</tspan></text></g></g><g transform="translate(151.013671875, 1014.66796875)" id="flowchart-db_write-476" class="node default default flowchart-label"><rect height="48" width="269.53125" y="-24" x="-134.765625" ry="0" rx="0" style="fill:#2ed573;" class="basic label-container"/><g transform="translate(0, -16.5)" style="color:#fff;" class="label"><rect/><text style="fill:#fff;"><tspan class="row" x="0" dy="1em" xml:space="preserve">db_write</tspan><tspan class="row" x="0" dy="1em" xml:space="preserve">&lt;i&gt;Write to graph.db + vector.db&lt;/i&gt;</tspan></text></g></g><g transform="translate(478.30078125, 1170.140625)" id="flowchart-report-479" class="node default default flowchart-label"><rect height="48" width="224.296875" y="-24" x="-112.1484375" ry="0" rx="0" style="" class="basic label-container"/><g transform="translate(0, -16.5)" style="" class="label"><rect/><text style=""><tspan class="row" x="0" dy="1em" xml:space="preserve">report</tspan><tspan class="row" x="0" dy="1em" xml:space="preserve">&lt;i&gt;Generate HTML report&lt;/i&gt;</tspan></text></g></g><g transform="translate(275.6328125, 1268.53125)" id="flowchart-END_NODE-481" class="node default default flowchart-label"><circle height="32" width="48.78125" r="24.390625" ry="0" rx="0" style=""/><g transform="translate(0, -8.5)" style="" class="label"><rect/><text style=""><tspan class="row" x="0" dy="1em" xml:space="preserve">END</tspan></text></g></g></g></g></g></svg>
