<svg aria-roledescription="flowchart-v2" role="graphics-document document" viewBox="-8 -8 1344.93359375 818.9765625" style="max-width: 1344.93359375px;" xmlns="http://www.w3.org/2000/svg" width="100%" id="mermaid-svg-1771874086611-vdbg57i7t"><style>#mermaid-svg-1771874086611-vdbg57i7t{font-family:"trebuchet ms",verdana,arial,sans-serif;font-size:16px;fill:#000000;}#mermaid-svg-1771874086611-vdbg57i7t .error-icon{fill:#f2dede;}#mermaid-svg-1771874086611-vdbg57i7t .error-text{fill:#a1260d;stroke:#a1260d;}#mermaid-svg-1771874086611-vdbg57i7t .edge-thickness-normal{stroke-width:2px;}#mermaid-svg-1771874086611-vdbg57i7t .edge-thickness-thick{stroke-width:3.5px;}#mermaid-svg-1771874086611-vdbg57i7t .edge-pattern-solid{stroke-dasharray:0;}#mermaid-svg-1771874086611-vdbg57i7t .edge-pattern-dashed{stroke-dasharray:3;}#mermaid-svg-1771874086611-vdbg57i7t .edge-pattern-dotted{stroke-dasharray:2;}#mermaid-svg-1771874086611-vdbg57i7t .marker{fill:#717171;stroke:#717171;}#mermaid-svg-1771874086611-vdbg57i7t .marker.cross{stroke:#717171;}#mermaid-svg-1771874086611-vdbg57i7t svg{font-family:"trebuchet ms",verdana,arial,sans-serif;font-size:16px;}#mermaid-svg-1771874086611-vdbg57i7t .label{font-family:"trebuchet ms",verdana,arial,sans-serif;color:#000000;}#mermaid-svg-1771874086611-vdbg57i7t .cluster-label text{fill:#000000;}#mermaid-svg-1771874086611-vdbg57i7t .cluster-label span,#mermaid-svg-1771874086611-vdbg57i7t p{color:#000000;}#mermaid-svg-1771874086611-vdbg57i7t .label text,#mermaid-svg-1771874086611-vdbg57i7t span,#mermaid-svg-1771874086611-vdbg57i7t p{fill:#000000;color:#000000;}#mermaid-svg-1771874086611-vdbg57i7t .node rect,#mermaid-svg-1771874086611-vdbg57i7t .node circle,#mermaid-svg-1771874086611-vdbg57i7t .node ellipse,#mermaid-svg-1771874086611-vdbg57i7t .node polygon,#mermaid-svg-1771874086611-vdbg57i7t .node path{fill:#ffffff;stroke:#c8c8c8;stroke-width:1px;}#mermaid-svg-1771874086611-vdbg57i7t .flowchart-label text{text-anchor:middle;}#mermaid-svg-1771874086611-vdbg57i7t .node .label{text-align:center;}#mermaid-svg-1771874086611-vdbg57i7t .node.clickable{cursor:pointer;}#mermaid-svg-1771874086611-vdbg57i7t .arrowheadPath{fill:#000000;}#mermaid-svg-1771874086611-vdbg57i7t .edgePath .path{stroke:#717171;stroke-width:2.0px;}#mermaid-svg-1771874086611-vdbg57i7t .flowchart-link{stroke:#717171;fill:none;}#mermaid-svg-1771874086611-vdbg57i7t .edgeLabel{background-color:#ffffff99;text-align:center;}#mermaid-svg-1771874086611-vdbg57i7t .edgeLabel rect{opacity:0.5;background-color:#ffffff99;fill:#ffffff99;}#mermaid-svg-1771874086611-vdbg57i7t .labelBkg{background-color:rgba(255, 255, 255, 0.5);}#mermaid-svg-1771874086611-vdbg57i7t .cluster rect{fill:#e5ebf1;stroke:#c8c8c8;stroke-width:1px;}#mermaid-svg-1771874086611-vdbg57i7t .cluster text{fill:#000000;}#mermaid-svg-1771874086611-vdbg57i7t .cluster span,#mermaid-svg-1771874086611-vdbg57i7t p{color:#000000;}#mermaid-svg-1771874086611-vdbg57i7t div.mermaidTooltip{position:absolute;text-align:center;max-width:200px;padding:2px;font-family:"trebuchet ms",verdana,arial,sans-serif;font-size:12px;background:#add6ff;border:1px solid #c8c8c8;border-radius:2px;pointer-events:none;z-index:100;}#mermaid-svg-1771874086611-vdbg57i7t .flowchartTitleText{text-anchor:middle;font-size:18px;fill:#000000;}#mermaid-svg-1771874086611-vdbg57i7t :root{--mermaid-font-family:"trebuchet ms",verdana,arial,sans-serif;}</style><g><marker orient="auto" markerHeight="12" markerWidth="12" markerUnits="userSpaceOnUse" refY="5" refX="6" viewBox="0 0 10 10" class="marker flowchart" id="mermaid-svg-1771874086611-vdbg57i7t_flowchart-pointEnd"><path style="stroke-width: 1; stroke-dasharray: 1, 0;" class="arrowMarkerPath" d="M 0 0 L 10 5 L 0 10 z"/></marker><marker orient="auto" markerHeight="12" markerWidth="12" markerUnits="userSpaceOnUse" refY="5" refX="4.5" viewBox="0 0 10 10" class="marker flowchart" id="mermaid-svg-1771874086611-vdbg57i7t_flowchart-pointStart"><path style="stroke-width: 1; stroke-dasharray: 1, 0;" class="arrowMarkerPath" d="M 0 5 L 10 10 L 10 0 z"/></marker><marker orient="auto" markerHeight="11" markerWidth="11" markerUnits="userSpaceOnUse" refY="5" refX="11" viewBox="0 0 10 10" class="marker flowchart" id="mermaid-svg-1771874086611-vdbg57i7t_flowchart-circleEnd"><circle style="stroke-width: 1; stroke-dasharray: 1, 0;" class="arrowMarkerPath" r="5" cy="5" cx="5"/></marker><marker orient="auto" markerHeight="11" markerWidth="11" markerUnits="userSpaceOnUse" refY="5" refX="-1" viewBox="0 0 10 10" class="marker flowchart" id="mermaid-svg-1771874086611-vdbg57i7t_flowchart-circleStart"><circle style="stroke-width: 1; stroke-dasharray: 1, 0;" class="arrowMarkerPath" r="5" cy="5" cx="5"/></marker><marker orient="auto" markerHeight="11" markerWidth="11" markerUnits="userSpaceOnUse" refY="5.2" refX="12" viewBox="0 0 11 11" class="marker cross flowchart" id="mermaid-svg-1771874086611-vdbg57i7t_flowchart-crossEnd"><path style="stroke-width: 2; stroke-dasharray: 1, 0;" class="arrowMarkerPath" d="M 1,1 l 9,9 M 10,1 l -9,9"/></marker><marker orient="auto" markerHeight="11" markerWidth="11" markerUnits="userSpaceOnUse" refY="5.2" refX="-1" viewBox="0 0 11 11" class="marker cross flowchart" id="mermaid-svg-1771874086611-vdbg57i7t_flowchart-crossStart"><path style="stroke-width: 2; stroke-dasharray: 1, 0;" class="arrowMarkerPath" d="M 1,1 l 9,9 M 10,1 l -9,9"/></marker><g class="root"><g class="clusters"><g id="subN" class="cluster default flowchart-label"><rect height="375" width="306.50390625" y="329.1953125" x="1022.4296875" ry="0" rx="0" style=""/><g transform="translate(1175.681640625, 329.1953125)" class="cluster-label"><text style=""><tspan class="row" x="0" dy="1em" xml:space="preserve">task_search (sub-task N)</tspan></text></g></g><g id="sub2" class="cluster default flowchart-label"><rect height="375" width="306.50390625" y="329.1953125" x="447.72265625" ry="0" rx="0" style=""/><g transform="translate(600.974609375, 329.1953125)" class="cluster-label"><text style=""><tspan class="row" x="0" dy="1em" xml:space="preserve">task_search (sub-task 2)</tspan></text></g></g><g id="sub1" class="cluster default flowchart-label"><rect height="375" width="427.72265625" y="329.1953125" x="0" ry="0" rx="0" style=""/><g transform="translate(213.861328125, 329.1953125)" class="cluster-label"><text style=""><tspan class="row" x="0" dy="1em" xml:space="preserve">task_search (sub-task 1)</tspan></text></g></g></g><g class="edgePaths"><path marker-end="url(#mermaid-svg-1771874086611-vdbg57i7t_flowchart-pointEnd)" style="fill:none;" class="edge-thickness-normal edge-pattern-solid flowchart-link LS-START LE-task_decomposer" id="L-START-task_decomposer-0" d="M661.566,66.195L661.566,70.362C661.566,74.529,661.566,82.862,661.566,90.312C661.566,97.762,661.566,104.329,661.566,107.612L661.566,110.895"/><path marker-end="url(#mermaid-svg-1771874086611-vdbg57i7t_flowchart-pointEnd)" style="fill:none;" class="edge-thickness-normal edge-pattern-solid flowchart-link LS-task_decomposer LE-subgraph1" id="L-task_decomposer-subgraph1-0" d="M513.988,180.624L464.076,188.886C414.163,197.148,314.337,213.671,264.424,226.717C214.512,239.762,214.512,249.329,214.512,254.112L214.512,258.895"/><path marker-end="url(#mermaid-svg-1771874086611-vdbg57i7t_flowchart-pointEnd)" style="fill:none;" class="edge-thickness-normal edge-pattern-solid flowchart-link LS-task_decomposer LE-subgraph2" id="L-task_decomposer-subgraph2-0" d="M634.646,196.195L630.832,201.862C627.019,207.529,619.391,218.862,615.577,229.312C611.764,239.762,611.764,249.329,611.764,254.112L611.764,258.895"/><path marker-end="url(#mermaid-svg-1771874086611-vdbg57i7t_flowchart-pointEnd)" style="fill:none;" class="edge-thickness-normal edge-pattern-solid flowchart-link LS-task_decomposer LE-subgraphN" id="L-task_decomposer-subgraphN-0" d="M809.145,175.991L876.492,185.025C943.84,194.059,1078.535,212.127,1145.883,225.945C1213.23,239.762,1213.23,249.329,1213.23,254.112L1213.23,258.895"/><path marker-end="url(#mermaid-svg-1771874086611-vdbg57i7t_flowchart-pointEnd)" style="fill:none;" class="edge-thickness-normal edge-pattern-solid flowchart-link LS-sp1 LE-ex1" id="L-sp1-ex1-0" d="M172.224,418.195L164.845,423.779C157.467,429.362,142.71,440.529,135.332,450.812C127.953,461.095,127.953,470.495,127.953,475.195L127.953,479.895"/><path marker-end="url(#mermaid-svg-1771874086611-vdbg57i7t_flowchart-pointEnd)" style="fill:none;" class="edge-thickness-normal edge-pattern-solid flowchart-link LS-ex1 LE-an1" id="L-ex1-an1-0" d="M127.953,549.195L127.953,553.362C127.953,557.529,127.953,565.862,134.571,574.998C141.189,584.134,154.424,594.074,161.042,599.043L167.66,604.013"/><path marker-end="url(#mermaid-svg-1771874086611-vdbg57i7t_flowchart-pointEnd)" style="fill:none;" class="edge-thickness-normal edge-pattern-solid flowchart-link LS-an1 LE-sp1" id="L-an1-sp1-0" d="M281.652,607.195L293.192,601.695C304.732,596.195,327.811,585.195,339.351,570.195C350.891,555.195,350.891,536.195,350.891,515.779C350.891,495.362,350.891,473.529,340.062,457.411C329.233,441.293,307.575,430.892,296.746,425.691L285.917,420.49"/><path marker-end="url(#mermaid-svg-1771874086611-vdbg57i7t_flowchart-pointEnd)" style="fill:none;" class="edge-thickness-normal edge-pattern-solid flowchart-link LS-sp1 LE-sub1_end" id="L-sp1-sub1_end-0" d="M251.657,418.195L258.138,423.779C264.619,429.362,277.581,440.529,284.062,451.921C290.543,463.313,290.543,474.93,290.543,480.739L290.543,486.548"/><path marker-end="url(#mermaid-svg-1771874086611-vdbg57i7t_flowchart-pointEnd)" style="fill:none;" class="edge-thickness-normal edge-pattern-solid flowchart-link LS-sp2 LE-ex2" id="L-sp2-ex2-0" d="M592.042,402.695L582.281,410.862C572.52,419.029,552.997,435.362,543.236,450.895C533.475,466.429,533.475,481.162,533.475,488.529L533.475,495.895"/><path marker-end="url(#mermaid-svg-1771874086611-vdbg57i7t_flowchart-pointEnd)" style="fill:none;" class="edge-thickness-normal edge-pattern-solid flowchart-link LS-ex2 LE-an2" id="L-ex2-an2-0" d="M533.475,533.195L533.475,540.029C533.475,546.862,533.475,560.529,542.403,574.956C551.332,589.384,569.19,604.573,578.119,612.167L587.048,619.762"/><path marker-end="url(#mermaid-svg-1771874086611-vdbg57i7t_flowchart-pointEnd)" style="fill:none;" class="edge-thickness-normal edge-pattern-solid flowchart-link LS-an2 LE-sp2" id="L-an2-sp2-0" d="M633.969,623.195L646.255,615.029C658.542,606.862,683.116,590.529,695.403,572.862C707.689,555.195,707.689,536.195,707.689,515.779C707.689,495.362,707.689,473.529,696.459,454.943C685.228,436.358,662.767,421.021,651.536,413.353L640.305,405.684"/><path marker-end="url(#mermaid-svg-1771874086611-vdbg57i7t_flowchart-pointEnd)" style="fill:none;" class="edge-thickness-normal edge-pattern-solid flowchart-link LS-sp2 LE-sub2_end" id="L-sp2-sub2_end-0" d="M620.726,402.695L625.162,410.862C629.598,419.029,638.47,435.362,642.906,449.337C647.342,463.313,647.342,474.93,647.342,480.739L647.342,486.548"/><path marker-end="url(#mermaid-svg-1771874086611-vdbg57i7t_flowchart-pointEnd)" style="fill:none;" class="edge-thickness-normal edge-pattern-solid flowchart-link LS-spN LE-exN" id="L-spN-exN-0" d="M1186.768,402.695L1173.67,410.862C1160.572,419.029,1134.377,435.362,1121.279,450.895C1108.182,466.429,1108.182,481.162,1108.182,488.529L1108.182,495.895"/><path marker-end="url(#mermaid-svg-1771874086611-vdbg57i7t_flowchart-pointEnd)" style="fill:none;" class="edge-thickness-normal edge-pattern-solid flowchart-link LS-exN LE-anN" id="L-exN-anN-0" d="M1108.182,533.195L1108.182,540.029C1108.182,546.862,1108.182,560.529,1118.216,574.994C1128.251,589.459,1148.32,604.723,1158.354,612.355L1168.389,619.987"/><path marker-end="url(#mermaid-svg-1771874086611-vdbg57i7t_flowchart-pointEnd)" style="fill:none;" class="edge-thickness-normal edge-pattern-solid flowchart-link LS-anN LE-spN" id="L-anN-spN-0" d="M1215.491,623.195L1226.642,615.029C1237.793,606.862,1260.095,590.529,1271.246,572.862C1282.396,555.195,1282.396,536.195,1282.396,515.779C1282.396,495.362,1282.396,473.529,1274.414,455.053C1266.432,436.577,1250.467,421.458,1242.485,413.899L1234.502,406.34"/><path marker-end="url(#mermaid-svg-1771874086611-vdbg57i7t_flowchart-pointEnd)" style="fill:none;" class="edge-thickness-normal edge-pattern-solid flowchart-link LS-spN LE-subN_end" id="L-spN-subN_end-0" d="M1215.452,402.695L1216.551,410.862C1217.651,419.029,1219.85,435.362,1220.949,449.337C1222.049,463.313,1222.049,474.93,1222.049,480.739L1222.049,486.548"/><path marker-end="url(#mermaid-svg-1771874086611-vdbg57i7t_flowchart-pointEnd)" style="fill:none;" class="edge-thickness-normal edge-pattern-solid flowchart-link LS-sub1_end LE-vqa_synthesizer" id="L-sub1_end-vqa_synthesizer-0" d="M290.543,542.543L290.543,547.818C290.543,553.094,290.543,563.645,372.779,577.862C455.015,592.079,619.486,609.963,701.722,618.905L783.958,627.847"/><path marker-end="url(#mermaid-svg-1771874086611-vdbg57i7t_flowchart-pointEnd)" style="fill:none;" class="edge-thickness-normal edge-pattern-solid flowchart-link LS-sub2_end LE-vqa_synthesizer" id="L-sub2_end-vqa_synthesizer-0" d="M647.342,542.543L647.342,547.818C647.342,553.094,647.342,563.645,670.136,575.068C692.931,586.492,738.52,598.788,761.315,604.937L784.109,611.085"/><path marker-end="url(#mermaid-svg-1771874086611-vdbg57i7t_flowchart-pointEnd)" style="fill:none;" class="edge-thickness-normal edge-pattern-solid flowchart-link LS-subN_end LE-vqa_synthesizer" id="L-subN_end-vqa_synthesizer-0" d="M1222.049,542.543L1222.049,547.818C1222.049,553.094,1222.049,563.645,1183.813,576.367C1145.577,589.09,1069.104,603.985,1030.868,611.432L992.632,618.88"/><path marker-end="url(#mermaid-svg-1771874086611-vdbg57i7t_flowchart-pointEnd)" style="fill:none;" class="edge-thickness-normal edge-pattern-solid flowchart-link LS-vqa_synthesizer LE-END" id="L-vqa_synthesizer-END-0" d="M888.328,679.195L888.328,683.362C888.328,687.529,888.328,695.862,888.328,704.195C888.328,712.529,888.328,720.862,888.328,728.312C888.328,735.762,888.328,742.329,888.328,745.612L888.328,748.895"/><path marker-end="url(#mermaid-svg-1771874086611-vdbg57i7t_flowchart-pointEnd)" style="fill:none;stroke-width:2px;stroke-dasharray:3;" class="edge-thickness-normal edge-pattern-dotted flowchart-link LS-subgraph1 LE-sub1" id="L-subgraph1-sub1-0" d="M214.512,279.195L214.512,283.362C214.512,287.529,214.512,295.862,214.512,303.312C214.512,310.762,214.512,317.329,214.512,320.612L214.512,323.895"/><path marker-end="url(#mermaid-svg-1771874086611-vdbg57i7t_flowchart-pointEnd)" style="fill:none;stroke-width:2px;stroke-dasharray:3;" class="edge-thickness-normal edge-pattern-dotted flowchart-link LS-subgraph2 LE-sub2" id="L-subgraph2-sub2-0" d="M611.764,279.195L611.764,283.362C611.764,287.529,611.764,295.862,611.764,303.312C611.764,310.762,611.764,317.329,611.764,320.612L611.764,323.895"/><path marker-end="url(#mermaid-svg-1771874086611-vdbg57i7t_flowchart-pointEnd)" style="fill:none;stroke-width:2px;stroke-dasharray:3;" class="edge-thickness-normal edge-pattern-dotted flowchart-link LS-subgraphN LE-subN" id="L-subgraphN-subN-0" d="M1213.23,279.195L1213.23,283.362C1213.23,287.529,1213.23,295.862,1213.23,303.312C1213.23,310.762,1213.23,317.329,1213.23,320.612L1213.23,323.895"/></g><g class="edgeLabels"><g class="edgeLabel"><g transform="translate(0, 0)" class="label"><rect height="0" width="0" ry="0" rx="0"/><text style=""><tspan class="row" x="0" dy="1em" xml:space="preserve"/></text></g></g><g transform="translate(214.51171875, 230.1953125)" class="edgeLabel"><g transform="translate(-47.5859375, -9)" class="label"><rect height="18.000171661376953" width="95.07903289794922" ry="0" rx="0"/><text style=""><tspan class="row" x="0" dy="1em" xml:space="preserve">Send(task_1)</tspan></text></g></g><g transform="translate(611.763671875, 230.1953125)" class="edgeLabel"><g transform="translate(-47.5859375, -9)" class="label"><rect height="18.000171661376953" width="95.07903289794922" ry="0" rx="0"/><text style=""><tspan class="row" x="0" dy="1em" xml:space="preserve">Send(task_2)</tspan></text></g></g><g transform="translate(1213.23046875, 230.1953125)" class="edgeLabel"><g transform="translate(-48.9140625, -9)" class="label"><rect height="18.000171661376953" width="97.73530578613281" ry="0" rx="0"/><text style=""><tspan class="row" x="0" dy="1em" xml:space="preserve">Send(task_N)</tspan></text></g></g><g transform="translate(127.953125, 451.6953125)" class="edgeLabel"><g transform="translate(-30.25, -8.5)" class="label"><rect height="17.00016212463379" width="60.43807601928711" ry="0" rx="0"/><text style=""><tspan class="row" x="0" dy="1em" xml:space="preserve">has plan</tspan></text></g></g><g class="edgeLabel"><g transform="translate(0, 0)" class="label"><rect height="0" width="0" ry="0" rx="0"/><text style=""><tspan class="row" x="0" dy="1em" xml:space="preserve"/></text></g></g><g class="edgeLabel"><g transform="translate(0, 0)" class="label"><rect height="0" width="0" ry="0" rx="0"/><text style=""><tspan class="row" x="0" dy="1em" xml:space="preserve"/></text></g></g><g transform="translate(290.54296875, 451.6953125)" class="edgeLabel"><g transform="translate(-34.7421875, -8.5)" class="label"><rect height="17.00016212463379" width="69.42601776123047" ry="0" rx="0"/><text style=""><tspan class="row" x="0" dy="1em" xml:space="preserve">task done</tspan></text></g></g><g class="edgeLabel"><g transform="translate(0, 0)" class="label"><rect height="0" width="0" ry="0" rx="0"/><text style=""><tspan class="row" x="0" dy="1em" xml:space="preserve"/></text></g></g><g class="edgeLabel"><g transform="translate(0, 0)" class="label"><rect height="0" width="0" ry="0" rx="0"/><text style=""><tspan class="row" x="0" dy="1em" xml:space="preserve"/></text></g></g><g class="edgeLabel"><g transform="translate(0, 0)" class="label"><rect height="0" width="0" ry="0" rx="0"/><text style=""><tspan class="row" x="0" dy="1em" xml:space="preserve"/></text></g></g><g transform="translate(647.341796875, 451.6953125)" class="edgeLabel"><g transform="translate(-17.84765625, -8.5)" class="label"><rect height="17.00016212463379" width="35.66960525512695" ry="0" rx="0"/><text style=""><tspan class="row" x="0" dy="1em" xml:space="preserve">done</tspan></text></g></g><g class="edgeLabel"><g transform="translate(0, 0)" class="label"><rect height="0" width="0" ry="0" rx="0"/><text style=""><tspan class="row" x="0" dy="1em" xml:space="preserve"/></text></g></g><g class="edgeLabel"><g transform="translate(0, 0)" class="label"><rect height="0" width="0" ry="0" rx="0"/><text style=""><tspan class="row" x="0" dy="1em" xml:space="preserve"/></text></g></g><g class="edgeLabel"><g transform="translate(0, 0)" class="label"><rect height="0" width="0" ry="0" rx="0"/><text style=""><tspan class="row" x="0" dy="1em" xml:space="preserve"/></text></g></g><g transform="translate(1222.048828125, 451.6953125)" class="edgeLabel"><g transform="translate(-17.84765625, -8.5)" class="label"><rect height="17.00016212463379" width="35.66960525512695" ry="0" rx="0"/><text style=""><tspan class="row" x="0" dy="1em" xml:space="preserve">done</tspan></text></g></g><g class="edgeLabel"><g transform="translate(0, 0)" class="label"><rect height="0" width="0" ry="0" rx="0"/><text style=""><tspan class="row" x="0" dy="1em" xml:space="preserve"/></text></g></g><g class="edgeLabel"><g transform="translate(0, 0)" class="label"><rect height="0" width="0" ry="0" rx="0"/><text style=""><tspan class="row" x="0" dy="1em" xml:space="preserve"/></text></g></g><g class="edgeLabel"><g transform="translate(0, 0)" class="label"><rect height="0" width="0" ry="0" rx="0"/><text style=""><tspan class="row" x="0" dy="1em" xml:space="preserve"/></text></g></g><g class="edgeLabel"><g transform="translate(0, 0)" class="label"><rect height="0" width="0" ry="0" rx="0"/><text style=""><tspan class="row" x="0" dy="1em" xml:space="preserve"/></text></g></g><g class="edgeLabel"><g transform="translate(0, 0)" class="label"><rect height="0" width="0" ry="0" rx="0"/><text style=""><tspan class="row" x="0" dy="1em" xml:space="preserve"/></text></g></g><g class="edgeLabel"><g transform="translate(0, 0)" class="label"><rect height="0" width="0" ry="0" rx="0"/><text style=""><tspan class="row" x="0" dy="1em" xml:space="preserve"/></text></g></g><g class="edgeLabel"><g transform="translate(0, 0)" class="label"><rect height="0" width="0" ry="0" rx="0"/><text style=""><tspan class="row" x="0" dy="1em" xml:space="preserve"/></text></g></g></g><g class="nodes"><g transform="translate(1213.23046875, 386.1953125)" id="flowchart-spN-528" class="node default default flowchart-label"><rect height="33" width="125.96875" y="-16.5" x="-62.984375" ry="0" rx="0" style="" class="basic label-container"/><g transform="translate(0, -9)" style="" class="label"><rect/><text style=""><tspan class="row" x="0" dy="1em" xml:space="preserve">search_planner</tspan></text></g></g><g transform="translate(1193.64453125, 639.1953125)" id="flowchart-anN-530" class="node default default flowchart-label"><rect height="32" width="76.1484375" y="-16" x="-38.07421875" ry="0" rx="0" style="" class="basic label-container"/><g transform="translate(0, -8.5)" style="" class="label"><rect/><text style=""><tspan class="row" x="0" dy="1em" xml:space="preserve">analyzer</tspan></text></g></g><g transform="translate(1108.181640625, 517.1953125)" id="flowchart-exN-529" class="node default default flowchart-label"><rect height="32" width="77.0390625" y="-16" x="-38.51953125" ry="0" rx="0" style="" class="basic label-container"/><g transform="translate(0, -8.5)" style="" class="label"><rect/><text style=""><tspan class="row" x="0" dy="1em" xml:space="preserve">executor</tspan></text></g></g><g transform="translate(1222.048828125, 517.1953125)" id="flowchart-subN_end-533" class="node default default flowchart-label"><circle height="32" width="50.6953125" r="25.34765625" ry="0" rx="0" style=""/><g transform="translate(0, -8.5)" style="" class="label"><rect/><text style=""><tspan class="row" x="0" dy="1em" xml:space="preserve">done</tspan></text></g></g><g transform="translate(611.763671875, 386.1953125)" id="flowchart-sp2-520" class="node default default flowchart-label"><rect height="33" width="125.96875" y="-16.5" x="-62.984375" ry="0" rx="0" style="" class="basic label-container"/><g transform="translate(0, -9)" style="" class="label"><rect/><text style=""><tspan class="row" x="0" dy="1em" xml:space="preserve">search_planner</tspan></text></g></g><g transform="translate(609.896484375, 639.1953125)" id="flowchart-an2-522" class="node default default flowchart-label"><rect height="32" width="76.1484375" y="-16" x="-38.07421875" ry="0" rx="0" style="" class="basic label-container"/><g transform="translate(0, -8.5)" style="" class="label"><rect/><text style=""><tspan class="row" x="0" dy="1em" xml:space="preserve">analyzer</tspan></text></g></g><g transform="translate(533.474609375, 517.1953125)" id="flowchart-ex2-521" class="node default default flowchart-label"><rect height="32" width="77.0390625" y="-16" x="-38.51953125" ry="0" rx="0" style="" class="basic label-container"/><g transform="translate(0, -8.5)" style="" class="label"><rect/><text style=""><tspan class="row" x="0" dy="1em" xml:space="preserve">executor</tspan></text></g></g><g transform="translate(647.341796875, 517.1953125)" id="flowchart-sub2_end-525" class="node default default flowchart-label"><circle height="32" width="50.6953125" r="25.34765625" ry="0" rx="0" style=""/><g transform="translate(0, -8.5)" style="" class="label"><rect/><text style=""><tspan class="row" x="0" dy="1em" xml:space="preserve">done</tspan></text></g></g><g transform="translate(214.51171875, 386.1953125)" id="flowchart-sp1-507" class="node default default flowchart-label"><rect height="64" width="196.5234375" y="-32" x="-98.26171875" ry="0" rx="0" style="fill:#ff9f43;" class="basic label-container"/><g transform="translate(0, -24.5)" style="color:#fff;" class="label"><rect/><text style="fill:#fff;"><tspan class="row" x="0" dy="1em" xml:space="preserve">search_planner</tspan><tspan class="row" x="0" dy="1em" xml:space="preserve">&lt;i&gt;LLM picks search type</tspan><tspan class="row" x="0" dy="1em" xml:space="preserve">&amp;amp; parameters&lt;/i&gt;</tspan></text></g></g><g transform="translate(127.953125, 517.1953125)" id="flowchart-ex1-508" class="node default default flowchart-label"><rect height="64" width="174.484375" y="-32" x="-87.2421875" ry="0" rx="0" style="fill:#2ed573;" class="basic label-container"/><g transform="translate(0, -24.5)" style="color:#fff;" class="label"><rect/><text style="fill:#fff;"><tspan class="row" x="0" dy="1em" xml:space="preserve">executor</tspan><tspan class="row" x="0" dy="1em" xml:space="preserve">&lt;i&gt;Runs SQL or visual</tspan><tspan class="row" x="0" dy="1em" xml:space="preserve">search (no LLM)&lt;/i&gt;</tspan></text></g></g><g transform="translate(214.51171875, 639.1953125)" id="flowchart-an1-509" class="node default default flowchart-label"><rect height="64" width="197.328125" y="-32" x="-98.6640625" ry="0" rx="0" style="fill:#ffa502;" class="basic label-container"/><g transform="translate(0, -24.5)" style="color:#fff;" class="label"><rect/><text style="fill:#fff;"><tspan class="row" x="0" dy="1em" xml:space="preserve">analyzer</tspan><tspan class="row" x="0" dy="1em" xml:space="preserve">&lt;i&gt;LLM evaluates results,</tspan><tspan class="row" x="0" dy="1em" xml:space="preserve">extracts clips&lt;/i&gt;</tspan></text></g></g><g transform="translate(290.54296875, 517.1953125)" id="flowchart-sub1_end-517" class="node default default flowchart-label"><circle height="32" width="50.6953125" r="25.34765625" ry="0" rx="0" style=""/><g transform="translate(0, -8.5)" style="" class="label"><rect/><text style=""><tspan class="row" x="0" dy="1em" xml:space="preserve">done</tspan></text></g></g><g transform="translate(661.56640625, 33.09765625)" id="flowchart-START-498" class="node default default flowchart-label"><circle height="32" width="66.1953125" r="33.09765625" ry="0" rx="0" style=""/><g transform="translate(0, -8.5)" style="" class="label"><rect/><text style=""><tspan class="row" x="0" dy="1em" xml:space="preserve">START</tspan></text></g></g><g transform="translate(661.56640625, 156.1953125)" id="flowchart-task_decomposer-499" class="node default default flowchart-label"><rect height="80" width="295.15625" y="-40" x="-147.578125" ry="0" rx="0" style="fill:#4a9eff;" class="basic label-container"/><g transform="translate(0, -32.5)" style="color:#fff;" class="label"><rect/><text style="fill:#fff;"><tspan class="row" x="0" dy="1em" xml:space="preserve">task_decomposer</tspan><tspan class="row" x="0" dy="1em" xml:space="preserve">&lt;i&gt;LLM breaks query into sub-tasks&lt;/i&gt;</tspan><tspan class="row" x="0" dy="1em" xml:space="preserve">&lt;i&gt;e.g. 'make coffee' → grab mug,</tspan><tspan class="row" x="0" dy="1em" xml:space="preserve">open machine, pour&lt;/i&gt;</tspan></text></g></g><g transform="translate(214.51171875, 271.6953125)" id="flowchart-subgraph1-502" class="node default default flowchart-label"><rect height="15" width="15" y="-7.5" x="-7.5" ry="0" rx="0" style="" class="basic label-container"/><g transform="translate(0, 0)" style="" class="label"><rect/><text style=""><tspan class="row" x="0" dy="1em" xml:space="preserve"/></text></g></g><g transform="translate(611.763671875, 271.6953125)" id="flowchart-subgraph2-504" class="node default default flowchart-label"><rect height="15" width="15" y="-7.5" x="-7.5" ry="0" rx="0" style="" class="basic label-container"/><g transform="translate(0, 0)" style="" class="label"><rect/><text style=""><tspan class="row" x="0" dy="1em" xml:space="preserve"/></text></g></g><g transform="translate(1213.23046875, 271.6953125)" id="flowchart-subgraphN-506" class="node default default flowchart-label"><rect height="15" width="15" y="-7.5" x="-7.5" ry="0" rx="0" style="" class="basic label-container"/><g transform="translate(0, 0)" style="" class="label"><rect/><text style=""><tspan class="row" x="0" dy="1em" xml:space="preserve"/></text></g></g><g transform="translate(888.328125, 639.1953125)" id="flowchart-vqa_synthesizer-537" class="node default default flowchart-label"><rect height="80" width="198.203125" y="-40" x="-99.1015625" ry="0" rx="0" style="fill:#e056fd;" class="basic label-container"/><g transform="translate(0, -32.5)" style="color:#fff;" class="label"><rect/><text style="fill:#fff;"><tspan class="row" x="0" dy="1em" xml:space="preserve">vqa_synthesizer</tspan><tspan class="row" x="0" dy="1em" xml:space="preserve">&lt;i&gt;LLM selects best clips,</tspan><tspan class="row" x="0" dy="1em" xml:space="preserve">assigns priority,</tspan><tspan class="row" x="0" dy="1em" xml:space="preserve">extracts .mp4 files&lt;/i&gt;</tspan></text></g></g><g transform="translate(888.328125, 778.5859375)" id="flowchart-END-544" class="node default default flowchart-label"><circle height="32" width="48.78125" r="24.390625" ry="0" rx="0" style=""/><g transform="translate(0, -8.5)" style="" class="label"><rect/><text style=""><tspan class="row" x="0" dy="1em" xml:space="preserve">END</tspan></text></g></g></g></g></g></svg>
